Genre:Horror | Mystery | Thriller
Language:English
IMDb:http://www.imdb.com/title/tt1314655/
Source:720p.Bluray.x264-CBGB


Format : Matroska
File size : 1.50 GiB
Duration : 1h 20mn
Overall bit rate : 2 663 Kbps


Video
Format settings, CABAC : Yes
Format settings, ReFrames : 4 frames
Codec ID : V_MPEG4/ISO/AVC
Duration : 1h 20mn
Bit rate : 2 300 Kbps
Width : 1 280 pixels
Height : 536 pixels
Display aspect ratio : 2.35:1
Frame rate mode : Variable
Frame rate : 23.976 fps
Color space : YUV
Chroma subsampling : 4:2:0
Bit depth : 8 bits
Scan type : Progressive
Bits/(Pixel*Frame) : 0.140
Stream size : 1.25 GiB (84%)
Writing library : x264 core 106


Audio
ID : 2
Format : AC-3
Format/Info : Audio Coding 3
Mode extension : CM (complete main)
Codec ID : A_AC3
Duration : 1h 20mn
Bit rate mode : Constant
Bit rate : 384 Kbps
Channel(s) : 6 channels
Channel positions : Front: L C R, Side: L R, LFE
Sampling rate : 48.0 KHz
Bit depth : 16 bits
Video delay : -1mn 5s
Stream size : 221 MiB (14%)
Language : English


Plot
A group of people trapped in an elevator realize that the devil is among them.


Screenshots:

 
http://www.leetleech.org/images/83787591742577122133.png
 
http://www.leetleech.org/images/39209626175117532203.png
 
http://www.leetleech.org/images/52672523131479569670.png


ENJOY!